
<svg width="50" height="50" viewBox="85 163 197 194" version="1.1" xmlns="http://www.w3.org/2000/svg" xmlns:xlink="http://www.w3.org/1999/xlink">
    <!-- Generator: Sketch 40 (33762) - http://www.bohemiancoding.com/sketch -->
    <desc>Created with Sketch.</desc>
    <defs>
        <linearGradient x1="0%" y1="69.8497183%" x2="103.415809%" y2="24.6259183%" id="linearGradient-1">
            <stop stop-color="#7E65E0" offset="0%"></stop>
            <stop stop-color="#A480DB" offset="12.686049%"></stop>
            <stop stop-color="#88C7ED" offset="60.906854%"></stop>
            <stop stop-color="#78C8DF" offset="78.0554073%"></stop>
            <stop stop-color="#63CACD" offset="100%"></stop>
        </linearGradient>
    </defs>
    <g id="logo" stroke="none" stroke-width="1" fill="none" fill-rule="evenodd" transform="translate(85.000000, 163.000000)">
        <polygon id="Path" fill="url(#linearGradient-1)" points="0 80.4700459 0 194 196.778887 194 196.778887 0 38.9232965 0 0 0"></polygon>
        <path d="M66.2591553,39.5923229 C62.6408518,35.7992952 57.2133965,33.9852385 50.3057262,33.9852385 C30.2405886,33.9852385 15.7673745,48.9924351 7.37948911,82.7998561 C5.07693233,92.0350541 3.92565394,99.950938 3.92565394,106.547508 C3.92565394,115.287963 6.06374238,121.719619 10.0109826,125.842475 L13.6292861,129.470589 C10.1754509,126.007389 7.54395745,120.730133 7.54395745,110.340536 C7.54395745,103.743966 8.69523584,95.6631675 10.9977926,86.2630553 C19.385678,52.6205486 33.8588921,37.6133519 53.7595614,37.6133519 C61.1606367,37.6133519 66.2591553,39.5923229 69.8774588,43.2204364 L66.2591553,39.5923229 Z M73.4957623,46.8485499 C69.8774588,43.2204364 64.2855352,41.2414654 57.3778649,41.2414654 C37.4771956,41.2414654 22.8395132,56.2486621 14.6160961,89.8911688 C12.3135393,99.291281 10.9977926,107.207165 10.9977926,113.803735 C10.9977926,122.709104 13.1358811,128.975846 17.2475896,133.098702 L20.8658931,136.726815 C17.905463,133.758359 14.6160961,127.656532 14.6160961,117.266934 C14.6160961,110.670364 15.7673745,102.75448 18.0699313,93.5192823 C26.4578167,59.7118613 40.9310307,44.7046646 60.9961684,44.7046646 C68.5617121,44.7046646 73.4957623,46.8485499 76.9495975,50.3117491 L73.4957623,46.8485499 Z M80.567901,53.9398626 C76.9495975,50.3117491 71.5221422,48.3327781 64.6144719,48.3327781 C44.5493343,48.3327781 30.0761202,63.3399748 21.6882348,96.9824815 C19.385678,106.382594 18.2343996,114.463392 18.2343996,121.059962 C18.2343996,129.800417 20.3724881,136.067158 24.4841966,140.190015 L28.1025001,143.818128 C25.14207,140.849672 21.8527031,135.242587 21.8527031,124.688075 C21.8527031,118.091505 23.0039815,110.010707 25.3065383,100.610595 C33.6944237,66.9680882 48.1676378,51.9608916 68.0683071,51.9608916 C75.1404458,51.9608916 80.567901,53.9398626 84.1862045,57.5679761 L80.567901,53.9398626 Z M87.6400397,61.0311753 C84.3506729,57.7328903 78.5942809,55.4240908 71.6866106,55.4240908 C51.6214729,55.4240908 37.1482589,70.4312875 28.7603735,104.238708 C26.4578167,113.473906 25.3065383,121.38979 25.3065383,127.821446 C25.3065383,136.726815 27.7735634,143.158471 31.7208036,147.446242 L35.1746388,151.074355 C32.2142087,147.940984 28.9248418,141.014586 28.9248418,131.44956 C28.9248418,125.017904 30.0761202,117.10202 32.378677,107.701908 C40.7665624,74.0594009 55.2397764,59.0522043 75.3049141,59.0522043 C82.7059895,59.0522043 87.6400397,61.0311753 91.2583432,64.6592888 L87.6400397,61.0311753 Z M94.8766467,68.2874022 C91.0938749,64.4943745 85.8308879,62.6803178 78.7587493,62.6803178 C58.85808,62.6803178 44.3848659,77.6875144 35.9969805,111.330021 C33.6944237,120.730133 32.5431453,128.810932 32.5431453,135.407501 C32.5431453,144.147957 34.5167654,150.414698 38.628474,154.537554 L42.2467775,158.165668 C46.0295493,161.793781 51.2925363,163.607838 58.2002066,163.607838 C69.0551171,163.607838 78.2653442,159.155153 85.6664196,149.919955 L82.0481161,146.291842 C74.6470407,155.691954 65.4368136,159.979725 54.5819031,159.979725 C48.8255111,159.979725 44.2203976,158.825325 40.6020941,156.186697 C40.108689,155.52704 39.615284,154.867383 39.2863473,154.042812 C42.4112458,155.691954 46.358486,156.516525 50.9635996,156.516525 C61.8185101,156.516525 71.0287372,152.228755 78.5942809,142.828643 L74.9759774,139.200529 C67.4104337,148.435727 58.2002066,152.888412 47.5097644,152.888412 C43.8914609,152.888412 40.7665624,152.393669 38.1350689,151.404184 C37.8061323,150.579612 37.4771956,149.590127 37.1482589,148.600641 C39.2863473,149.095384 41.5889041,149.260298 43.8914609,149.260298 C54.7463714,149.260298 63.9565985,144.972528 71.3576739,135.572416 L67.9038387,132.109217 C60.338295,141.509329 51.1280679,145.797099 40.2731574,145.797099 C38.9574107,145.797099 37.8061323,145.632185 36.6548539,145.467271 C36.4903855,144.477785 36.3259172,143.323385 36.3259172,142.168986 L36.8193222,142.168986 C47.5097644,142.168986 56.7199915,137.716301 64.2855352,128.481103 L60.6672317,124.85299 C53.9240297,133.428531 45.7006126,137.716301 36.1614488,138.375958 L36.3259172,134.418016 C44.2203976,132.933788 51.1280679,128.646017 57.0489282,121.224876 L53.595093,117.761677 C48.6610428,123.863504 43.0691192,127.821446 36.8193222,129.800417 C37.3127272,125.347732 38.2995373,120.400305 39.615284,114.958135 C48.0031694,81.1507136 62.4763835,66.143517 82.3770528,66.143517 C85.9953563,66.143517 89.1202548,66.6382597 91.9162166,67.6277452 L92.4096216,69.2768877 L95.8634568,72.7400869 C95.5345201,71.420773 94.8766467,70.101459 94.2187734,68.782145 C95.0411151,69.1119735 95.6989884,69.6067162 96.3568618,70.101459 C97.6726085,71.7506015 98.8238869,73.8944867 99.4817603,76.3682004 L103.100064,79.9963139 C102.113254,76.5331147 100.46857,73.8944867 98.4949502,71.7506015 L94.8766467,68.2874022 Z" id="C" fill="#FFFFFF"></path>
        <path d="M102.269894,37.0013552 L98.6221783,33.34375 L107.078246,131.101562 L110.725962,134.759168 L102.269894,37.0013552 Z M196.778887,65.9296875 L193.131171,62.2720823 L138.912854,155.042251 L138.083828,146.397003 L189.483456,58.614477 L185.83574,54.9568718 L137.420607,138.084263 L136.591581,129.771524 L182.35383,51.4655214 L178.706115,47.8079161 L135.92836,120.960021 L135.099334,112.481027 L175.058399,44.1503109 L171.410684,40.4927057 L134.436113,104.002033 L133.607086,95.5230389 L167.928773,37.0013552 L164.281058,33.34375 L132.943865,86.8777902 L131.120008,65.9296875 L127.472292,62.2720823 L135.92836,160.029895 L139.576075,163.6875 L196.778887,65.9296875 Z M109.39952,44.1503109 L105.751804,40.4927057 L114.373677,138.416773 L117.855587,141.908123 L109.39952,44.1503109 Z M116.694951,51.4655214 L113.047235,47.8079161 L121.503303,145.565729 L125.151018,149.223334 L116.694951,51.4655214 Z M123.824576,58.614477 L120.176861,54.9568718 L128.798734,152.880939 L132.280644,156.37229 L123.824576,58.614477 Z" id="v" fill="#FFFFFF"></path>
    </g>
</svg>