
<svg width="100%" height="100%" viewBox="-93 -93 600 918" version="1.1" xmlns="http://www.w3.org/2000/svg" xmlns:xlink="http://www.w3.org/1999/xlink">
    <!-- Generator: Sketch 3.7 (28169) - http://www.bohemiancoding.com/sketch -->
    <desc>Created with Sketch.</desc>
    <defs>
        <linearGradient x1="13.6691829%" y1="27.0007192%" x2="88.2909699%" y2="58.6877856%" id="linearGradient-1">
            <stop stop-color="#EEEEEE" stop-opacity="0" offset="0%"></stop>
            <stop stop-color="#073664" stop-opacity="0.67357337" offset="100%"></stop>
        </linearGradient>
        <linearGradient x1="50%" y1="0%" x2="50%" y2="98.3657526%" id="linearGradient-2">
            <stop stop-color="#FFFFFF" stop-opacity="0" offset="0%"></stop>
            <stop stop-color="#9AA1F4" stop-opacity="0.299167799" offset="58.5080517%"></stop>
            <stop stop-color="#9AA1F4" stop-opacity="0" offset="100%"></stop>
        </linearGradient>
        <path d="M27.7119675,255.947426 L24.143002,189.844469 C24.143002,189.844469 51.2308103,134.665386 36.3194726,124.547645 C16.3809117,111.018799 0,82.6286966 0,82.6286966 L44.5070994,89.0777656 L44.5070994,0 L65.2910751,15.7196057 L73.8985801,124.547645 L70.959432,170.094195 L44.5070994,207.982475 L52.2748479,269.248631 L27.7119675,255.947426 Z" id="path-3"></path>
        <filter x="-50%" y="-50%" width="200%" height="200%" filterUnits="objectBoundingBox" id="filter-4">
            <feGaussianBlur stdDeviation="30.9731158" in="SourceGraphic"></feGaussianBlur>
        </filter>
        <linearGradient x1="13.6691829%" y1="27.0007192%" x2="88.2909699%" y2="58.6877856%" id="linearGradient-5">
            <stop stop-color="#EEEEEE" stop-opacity="0" offset="0%"></stop>
            <stop stop-color="#6C2B69" stop-opacity="0.67357337" offset="100%"></stop>
        </linearGradient>
        <linearGradient x1="50%" y1="0%" x2="50%" y2="98.3657526%" id="linearGradient-6">
            <stop stop-color="#FFFFFF" stop-opacity="0.0972599638" offset="0%"></stop>
            <stop stop-color="#9AA1F4" stop-opacity="0.299167799" offset="58.5080517%"></stop>
            <stop stop-color="#9AA1F4" stop-opacity="0" offset="100%"></stop>
        </linearGradient>
        <path d="M284.467546,306.330781 C280.651171,304.60367 275.860041,336.963855 275.860041,336.963855 L229.25355,266.427167 L283.207911,270.860898 C283.207911,270.860898 245.635041,242.914236 239.330629,232.569554 C233.59853,223.163962 279.848884,208.788606 279.848884,208.788606 C279.848884,208.788606 222.387008,127.763176 224.884484,122.532311 C229.688795,112.469871 177.926931,259.259272 191.625613,266.427167 C203.729131,272.760385 281.738337,139.05805 281.738337,139.05805 C281.738337,139.05805 280.507565,168.433276 284.467546,176.946331 C286.351409,180.996208 282.602025,205.072957 286.356998,208.788609 C289.521656,211.920127 290.641296,225.458192 294.964503,224.105148 C297.518187,223.305915 300.650678,215.223308 303.362069,211.610077 C307.894514,205.570087 317.637931,196.293538 317.637931,196.293538 C317.637931,196.293538 300.36248,171.949478 300.842799,167.272727 C301.771926,158.226049 291.540974,131.877406 296.014199,122.532311 C299.225412,115.823707 294.872749,123.959753 300.842799,122.532311 C304.488411,121.660644 307.37333,145.339643 312.599391,142.685652 C318.442638,139.71823 328.134888,174.527929 328.134888,174.527929 C328.134888,174.527929 350.393958,113.559744 354.377282,112.858708 C358.791524,112.081833 353.327586,170.094195 353.327586,170.094195 C353.327586,170.094195 283.71021,247.285122 284.467546,253.932095 C285.179784,260.18326 357.736308,208.788609 357.736308,208.788609 C357.736308,208.788609 379.58628,198.492544 381.87931,201.533404 C387.126814,208.492285 371.173153,219.863495 373.901623,232.569554 C377.039832,247.183706 398.464503,262.799562 398.464503,262.799562 L413.790061,306.330781 L321.416836,243.452355 L341.780933,294.641844 C341.780933,294.641844 399.039099,352.30277 397.414807,355.907987 C392.176661,367.534382 379.403623,321.731885 357.736308,323.662642 C336.044557,325.595576 321.416836,278.116104 321.416836,278.116104 C321.416836,278.116104 332.587121,376.437361 328.134888,384.122664 C326.454168,387.023871 303.355848,408.510873 296.014199,390.168666 C289.484523,373.855072 305.251521,350.265051 305.251521,350.265051 C305.251521,350.265051 290.448331,309.037402 284.467546,306.330781 Z" id="path-7"></path>
        <filter x="-50%" y="-50%" width="200%" height="200%" filterUnits="objectBoundingBox" id="filter-8">
            <feGaussianBlur stdDeviation="30.9731158" in="SourceGraphic"></feGaussianBlur>
        </filter>
        <linearGradient x1="96.7106146%" y1="19.4969581%" x2="78.2404368%" y2="110.16603%" id="linearGradient-9">
            <stop stop-color="#EEB3D7" stop-opacity="0.640313632" offset="0%"></stop>
            <stop stop-color="#79BCFD" stop-opacity="0" offset="100%"></stop>
        </linearGradient>
        <linearGradient x1="10.8944788%" y1="66.5484246%" x2="55.7897971%" y2="66.548425%" id="linearGradient-10">
            <stop stop-color="#FFFFFF" stop-opacity="0" offset="0%"></stop>
            <stop stop-color="#CCA7E9" stop-opacity="0.155230978" offset="100%"></stop>
        </linearGradient>
        <linearGradient x1="18.7540655%" y1="0%" x2="28.1560625%" y2="86.1795033%" id="linearGradient-11">
            <stop stop-color="#9E93E3" stop-opacity="0.366847826" offset="0%"></stop>
            <stop stop-color="#585656" stop-opacity="0.5" offset="100%"></stop>
        </linearGradient>
        <polygon id="path-12" points="87.8052738 668.368018 87.8052738 620 148.057809 694.791286 235.392495 644.631861 301.103448 644.631861 283.258621 753.012048 39.7292089 752.564196 37 655.828161"></polygon>
        <filter x="-50%" y="-50%" width="200%" height="200%" filterUnits="objectBoundingBox" id="filter-13">
            <feGaussianBlur stdDeviation="23.7982537" in="SourceGraphic"></feGaussianBlur>
        </filter>
    </defs>
    <g id="nebulas" stroke="none" stroke-width="1" fill="none" fill-rule="evenodd">
        <g id="Path-1" filter="url(#filter-4)" transform="translate(36.949290, 134.624315) scale(-1, 1) translate(-36.949290, -134.624315) ">
            <use fill="url(#linearGradient-1)" xlink:href="#path-3"></use>
            <use fill="url(#linearGradient-2)" xlink:href="#path-3"></use>
        </g>
        <g id="Path-1" filter="url(#filter-8)">
            <use fill="url(#linearGradient-5)" xlink:href="#path-7"></use>
            <use fill="url(#linearGradient-6)" xlink:href="#path-7"></use>
        </g>
        <g id="Path-6" filter="url(#filter-13)">
            <use fill="url(#linearGradient-9)" xlink:href="#path-12"></use>
            <use fill="url(#linearGradient-10)" xlink:href="#path-12"></use>
            <use fill="url(#linearGradient-11)" xlink:href="#path-12"></use>
        </g>
    </g>
</svg>