
<svg width="100%" height="100%" viewBox="9 8 389 717" version="1.1" xmlns="http://www.w3.org/2000/svg" xmlns:xlink="http://www.w3.org/1999/xlink">
    <!-- Generator: Sketch 3.7 (28169) - http://www.bohemiancoding.com/sketch -->
    <desc>Created with Sketch.</desc>
    <defs></defs>
    <g id="stars" stroke="none" stroke-width="1" fill="none" fill-rule="evenodd" transform="translate(9.000000, 8.000000)">
        <g id="Group" transform="translate(194.817866, 196.067328) rotate(179.000000) translate(-194.817866, -196.067328) translate(4.317866, 3.567328)" fill="#FFFFFF">
            <rect id="star1" x="350.393653" y="309.774598" width="0.755158735" height="2.32040897"></rect>
            <rect id="star1" x="194.075795" y="190.273536" width="0.755158735" height="2.32040897"></rect>
            <rect id="star1" x="379.844844" y="381.707276" width="0.755158735" height="2.32040897"></rect>
            <rect id="star1" x="59.65754" y="135.743925" width="0.755158735" height="2.32040897"></rect>
            <rect id="star1" x="60.4126988" y="379.386867" width="0.755158735" height="2.32040897"></rect>
            <rect id="star1" x="351.148812" y="71.9326781" width="0.755158735" height="2.32040897"></rect>
            <rect id="star1" x="351.148812" y="71.9326781" width="0.755158735" height="2.32040897"></rect>
            <rect id="star1" x="351.148812" y="71.9326781" width="0.755158735" height="2.32040897"></rect>
            <rect id="star1" x="351.148812" y="71.9326781" width="0.755158735" height="2.32040897"></rect>
            <rect id="star1" x="3.97903932e-13" y="-5.68434189e-14" width="0.755158735" height="2.32040897"></rect>
        </g>
        <g id="Group" transform="translate(229.125933, 165.354794) rotate(179.000000) translate(-229.125933, -165.354794) translate(93.125933, 42.354794)" fill="#FFFFFF">
            <rect id="star1" x="250.403258" y="198.256528" width="0.539662194" height="1.48506762"></rect>
            <rect id="star1" x="138.693184" y="121.775545" width="0.539662194" height="1.48506762"></rect>
            <rect id="star1" x="271.450083" y="244.293624" width="0.539662194" height="1.48506762"></rect>
            <rect id="star1" x="42.6333133" y="86.876456" width="0.539662194" height="1.48506762"></rect>
            <rect id="star1" x="43.1729755" y="242.808556" width="0.539662194" height="1.48506762"></rect>
            <rect id="star1" x="250.94292" y="46.0370963" width="0.539662194" height="1.48506762"></rect>
            <rect id="star1" x="250.94292" y="46.0370963" width="0.539662194" height="1.48506762"></rect>
            <rect id="star1" x="250.94292" y="46.0370963" width="0.539662194" height="1.48506762"></rect>
            <rect id="star1" x="250.94292" y="46.0370963" width="0.539662194" height="1.48506762"></rect>
            <rect id="star1" x="3.41060513e-13" y="2.27373675e-13" width="0.539662194" height="1.48506762"></rect>
        </g>
        <g id="Group" transform="translate(198.125933, 542.354794) scale(-1, -1) rotate(150.000000) translate(-198.125933, -542.354794) translate(62.125933, 419.354794)" fill="#FFFFFF">
            <rect id="star1" x="250.403258" y="198.256528" width="0.539662194" height="1.48506762"></rect>
            <rect id="star1" x="138.693184" y="121.775545" width="0.539662194" height="1.48506762"></rect>
            <rect id="star1" x="271.450083" y="244.293624" width="0.539662194" height="1.48506762"></rect>
            <rect id="star1" x="42.6333133" y="86.876456" width="0.539662194" height="1.48506762"></rect>
            <rect id="star1" x="43.1729755" y="242.808556" width="0.539662194" height="1.48506762"></rect>
            <rect id="star1" x="250.94292" y="46.0370963" width="0.539662194" height="1.48506762"></rect>
            <rect id="star1" x="250.94292" y="46.0370963" width="0.539662194" height="1.48506762"></rect>
            <rect id="star1" x="250.94292" y="46.0370963" width="0.539662194" height="1.48506762"></rect>
            <rect id="star1" x="250.94292" y="46.0370963" width="0.539662194" height="1.48506762"></rect>
            <rect id="star1" x="3.41060513e-13" y="2.27373675e-13" width="0.539662194" height="1.48506762"></rect>
        </g>
    </g>
</svg>